<?xml version="1.0" standalone="no"?>
<!DOCTYPE svg PUBLIC "-//W3C//DTD SVG 20010904//EN"
 "http://www.w3.org/TR/2001/REC-SVG-20010904/DTD/svg10.dtd">
<svg version="1.0" xmlns="http://www.w3.org/2000/svg"
 width="688.000000pt" height="688.000000pt" viewBox="0 0 688.000000 688.000000"
 preserveAspectRatio="xMidYMid meet">
<metadata>
Created by potrace 1.14, written by Peter Selinger 2001-2017
</metadata>
<g transform="translate(0.000000,688.000000) scale(0.100000,-0.100000)"
fill="#000000" stroke="none">
<path d="M0 3440 l0 -2580 3440 0 3440 0 0 215 0 215 -3225 0 -3225 0 0 2365
0 2365 -215 0 -215 0 0 -2580z"/>
<path d="M4830 5577 c-34 -17 -63 -79 -55 -116 4 -20 72 -95 222 -246 l217
-216 -780 -780 -779 -779 -397 397 c-219 219 -410 403 -426 410 -16 6 -37 10
-48 8 -10 -2 -23 -4 -29 -4 -5 -1 -458 -449 -1006 -997 l-996 -996 322 -323
323 -322 698 698 699 699 400 -399 c220 -219 409 -403 420 -408 11 -5 27 -9
35 -8 8 1 24 3 35 3 12 1 452 435 1097 1079 l1077 1077 209 -210 c116 -115
221 -215 235 -221 49 -23 119 4 137 53 6 15 10 323 10 776 0 816 1 801 -55
826 -38 17 -1531 16 -1565 -1z"/>
</g>
</svg>
